<svg xmlns="http://www.w3.org/2000/svg" width="805" height="600"><rect width="805" height="600" x="0" y="0" fill="#ffffff" id="backgorund"/><g id="viz"><clipPath id="serieClipPath"><rect x="-50" y="-10" width="805" height="600"/></clipPath><g transform="translate(0,0)"><g transform="translate(50,10)" clip-path="url(#serieClipPath)"><g id="axis"><g transform="translate(0,570)" fill="none" font-size="10" font-family="sans-serif" text-anchor="middle"><path class="domain" stroke="currentColor" d="M0,6V0H740V6"/><g class="tick" opacity="1" transform="translate(0,0)"><line stroke="currentColor" y2="6"/><text fill="currentColor" y="9" dy="0.71em">Jan 02</text></g><g class="tick" opacity="1" transform="translate(56.92307692307693,0)"><line stroke="currentColor" y2="6"/><text fill="currentColor" y="9" dy="0.71em">Jan 09</text></g><g class="tick" opacity="1" transform="translate(113.84615384615385,0)"><line stroke="currentColor" y2="6"/><text fill="currentColor" y="9" dy="0.71em">Jan 16</text></g><g class="tick" opacity="1" transform="translate(170.76923076923077,0)"><line stroke="currentColor" y2="6"/><text fill="currentColor" y="9" dy="0.71em">Jan 23</text></g><g class="tick" opacity="1" transform="translate(227.6923076923077,0)"><line stroke="currentColor" y2="6"/><text fill="currentColor" y="9" dy="0.71em">Jan 30</text></g><g class="tick" opacity="1" transform="translate(284.61538461538464,0)"><line stroke="currentColor" y2="6"/><text fill="currentColor" y="9" dy="0.71em">Feb 06</text></g><g class="tick" opacity="1" transform="translate(341.53846153846155,0)"><line stroke="currentColor" y2="6"/><text fill="currentColor" y="9" dy="0.71em">Feb 13</text></g><g class="tick" opacity="1" transform="translate(398.46153846153845,0)"><line stroke="currentColor" y2="6"/><text fill="currentColor" y="9" dy="0.71em">Feb 20</text></g><g class="tick" opacity="1" transform="translate(455.3846153846154,0)"><line stroke="currentColor" y2="6"/><text fill="currentColor" y="9" dy="0.71em">Feb 27</text></g><g class="tick" opacity="1" transform="translate(512.3076923076923,0)"><line stroke="currentColor" y2="6"/><text fill="currentColor" y="9" dy="0.71em">Mar 06</text></g><g class="tick" opacity="1" transform="translate(569.2307692307693,0)"><line stroke="currentColor" y2="6"/><text fill="currentColor" y="9" dy="0.71em">Mar 13</text></g><g class="tick" opacity="1" transform="translate(626.1538461538462,0)"><line stroke="currentColor" y2="6"/><text fill="currentColor" y="9" dy="0.71em">Mar 20</text></g><g class="tick" opacity="1" transform="translate(683.0769230769231,0)"><line stroke="currentColor" y2="6"/><text fill="currentColor" y="9" dy="0.71em">Mar 27</text></g><g class="tick" opacity="1" transform="translate(740,0)"><line stroke="currentColor" y2="6"/><text fill="currentColor" y="9" dy="0.71em">Apr 03</text></g><text x="740" dy="-5" text-anchor="end" style="font-family: Arial, sans-serif; font-size: 12px; fill: rgb(123, 123, 123); font-weight: bold;">日期</text></g><g transform="translate(0,0)" fill="none" font-size="10" font-family="sans-serif" text-anchor="end"><path class="domain" stroke="currentColor" d="M0,570V0"/><g class="tick" opacity="1" transform="translate(0,570)"><line stroke="currentColor" x2="-6"/><text fill="currentColor" x="-9" dy="0.32em">440</text></g><g class="tick" opacity="1" transform="translate(0,518.1818181818181)"><line stroke="currentColor" x2="-6"/><text fill="currentColor" x="-9" dy="0.32em">450</text></g><g class="tick" opacity="1" transform="translate(0,466.3636363636363)"><line stroke="currentColor" x2="-6"/><text fill="currentColor" x="-9" dy="0.32em">460</text></g><g class="tick" opacity="1" transform="translate(0,414.54545454545456)"><line stroke="currentColor" x2="-6"/><text fill="currentColor" x="-9" dy="0.32em">470</text></g><g class="tick" opacity="1" transform="translate(0,362.72727272727275)"><line stroke="currentColor" x2="-6"/><text fill="currentColor" x="-9" dy="0.32em">480</text></g><g class="tick" opacity="1" transform="translate(0,310.9090909090909)"><line stroke="currentColor" x2="-6"/><text fill="currentColor" x="-9" dy="0.32em">490</text></g><g class="tick" opacity="1" transform="translate(0,259.0909090909091)"><line stroke="currentColor" x2="-6"/><text fill="currentColor" x="-9" dy="0.32em">500</text></g><g class="tick" opacity="1" transform="translate(0,207.27272727272728)"><line stroke="currentColor" x2="-6"/><text fill="currentColor" x="-9" dy="0.32em">510</text></g><g class="tick" opacity="1" transform="translate(0,155.45454545454544)"><line stroke="currentColor" x2="-6"/><text fill="currentColor" x="-9" dy="0.32em">520</text></g><g class="tick" opacity="1" transform="translate(0,103.63636363636361)"><line stroke="currentColor" x2="-6"/><text fill="currentColor" x="-9" dy="0.32em">530</text></g><g class="tick" opacity="1" transform="translate(0,51.818181818181834)"><line stroke="currentColor" x2="-6"/><text fill="currentColor" x="-9" dy="0.32em">540</text></g><g class="tick" opacity="1" transform="translate(0,0)"><line stroke="currentColor" x2="-6"/><text fill="currentColor" x="-9" dy="0.32em">550</text></g><text x="4" text-anchor="start" dominant-baseline="hanging" style="font-family: Arial, sans-serif; font-size: 12px; fill: rgb(123, 123, 123); font-weight: bold;">收盤價</text></g></g><g id="viz"><g><path d="M8.131868131868133,502.6363636363636L16.263736263736266,520.7727272727273L24.395604395604398,474.1363636363636L32.52747252747253,474.1363636363636L56.92307692307693,357.5454545454545L65.05494505494507,331.6363636363636L73.18681318681318,339.40909090909093L81.31868131868131,329.04545454545456L89.45054945054945,259.0909090909091L113.84615384615385,233.18181818181816L121.97802197802197,243.54545454545453L227.6923076923077,36.27272727272725L235.8241758241758,145.09090909090907L243.95604395604394,103.63636363636361L252.0879120879121,51.818181818181834L260.21978021978026,41.45454545454547L284.61538461538464,124.36363636363635L292.74725274725273,139.90909090909093L300.8791208791209,51.818181818181834L309.010989010989,51.818181818181834L317.1428571428571,25.909090909090885L341.53846153846155,46.63636363636362L349.67032967032964,25.909090909090885L357.8021978021978,129.54545454545456L365.9340659340659,113.99999999999997L374.0659340659341,165.8181818181818L398.46153846153845,171.00000000000003L406.59340659340666,176.1818181818182L414.72527472527474,222.81818181818178L422.85714285714283,165.8181818181818L430.98901098901104,202.09090909090907L479.7802197802198,160.63636363636365L487.9120879120879,176.1818181818182L512.3076923076923,150.27272727272728L520.4395604395605,134.72727272727272L528.5714285714286,150.27272727272728L536.7032967032967,145.09090909090907L544.8351648351648,191.7272727272727L569.2307692307693,176.1818181818182L577.3626373626373,207.27272727272728L585.4945054945055,202.09090909090907L593.6263736263736,233.18181818181816L601.7582417582418,165.8181818181818L626.1538461538462,196.9090909090909L634.2857142857142,171.00000000000003L642.4175824175825,88.0909090909091L650.5494505494505,62.1818181818182L658.6813186813187,56.999999999999986L683.0769230769231,98.45454545454545L691.2087912087912,129.54545454545456L699.3406593406593,103.63636363636361" stroke="#bd10e0" fill="none"/><text font-family="sans-serif" font-size="10" class="labels" x="317.1428571428571" y="25.909090909090885" dx="0" dy="-4" text-anchor="middle"/></g></g></g><text y="4" x="4" style="font-family: Arial, sans-serif; font-size: 12px; fill: black; font-weight: bold; dominant-baseline: hanging;"/></g><g id="grid"><rect x="0" y="0" width="805" height="600" fill="none" stroke="#ccc"/></g></g></svg>